# xmcd CD database file
# Generated: Sun Oct 19 13:19:44 2003 by KSCD
# 
# Track frame offsets:
#       150
#       15754
#       35740
#       53430
#       69921
#       85719
#       101095
#       114402
#       126007
#       145462
#       161982
#       178015
#       192039
#       207355
#       224949
#
# Disc length: 3193 seconds
#
# Revision: 1
# Processed by: cddbd v1.4PL0 Copyright (c) Steve Scherf et al.
# Submitted via: Kscd 1.3.3
#
DISCID=d40c770f
DTITLE=George Strait - Latest Greatest Straitest Hits
DYEAR=2000
DGENRE=Country
TTITLE0=The Best Day
TTITLE1=Murder On Music Row
TTITLE2=Carrying Your Love With Me
TTITLE3=Adalida
TTITLE4=Lead On
TTITLE5=Carried Away
TTITLE6=Blue Clear Sky
TTITLE7=We Really Shouldn't Be Doing This
TTITLE8=I Can Still Make Cheyenne
TTITLE9=True
TTITLE10=King Of The Mountain
TTITLE11=Round About Way
TTITLE12=You Can't Make A Heart Love Somebody
TTITLE13=One Night At A Time
TTITLE14=Today My World Slipped Away
EXTD=YEAR: 2000 ID3G: 2
EXTT0=
EXTT1=
EXTT2=
EXTT3=
EXTT4=
EXTT5=
EXTT6=
EXTT7=
EXTT8=
EXTT9=
EXTT10=
EXTT11=
EXTT12=
EXTT13=
EXTT14=
PLAYORDER=
